    <svg
      version="1.1"
      xmlns="http://www.w3.org/2000/svg"
      width="232"
      height="162"
    >
      <path
        d="M0 0 C76.56 0 153.12 0 232 0 C232 53.46 232 106.92 232 162 C155.44 162 78.88 162 0 162 C0 108.54 0 55.08 0 0 Z "
        fill="transparent"
        transform="translate(0,0)"
      />
      <path
        d="M0 0 C1.04595337 0.53161743 1.04595337 0.53161743 2.11303711 1.07397461 C6.31606254 3.29703414 9.69716215 5.72300849 13.125 9.0625 C16.14170142 12.08271495 16.14170142 12.08271495 20.3125 12.6875 C21.55 12.295625 22.7875 11.90375 24.0625 11.5 C39.31801446 6.98326158 59.29464186 5.52872034 74.1171875 12.4609375 C75.99429102 13.45533945 75.99429102 13.45533945 79.0625 13.5 C81.59097098 11.54769661 83.77842405 9.34998696 86.05078125 7.10546875 C89.54594922 4.08176312 93.08092402 2.01293293 97.1875 -0.0625 C97.84419678 -0.40845215 98.50089355 -0.7544043 99.17749023 -1.11083984 C104.01972156 -3.47723932 107.68154772 -3.94746866 113.0625 -3.5 C118.74078748 -0.87925193 120.95538002 2.8515946 123.0625 8.5 C123.8125 11.375 123.8125 11.375 124.0625 14.5 C124.15724609 15.52287109 124.15724609 15.52287109 124.25390625 16.56640625 C124.72851222 25.85949724 122.19251816 35.95200492 117.75 44.125 C115.83182227 47.96135545 115.8552953 48.55533113 117.0625 52.5 C118.20878028 54.86525151 119.37542791 57.1071381 120.6875 59.375 C121.04505371 59.99487793 121.40260742 60.61475586 121.77099609 61.25341797 C125.97953097 68.32844718 131.05108475 73.2247468 138.0625 77.5 C137.9375 79.375 137.9375 79.375 137.0625 81.5 C134 82.75 134 82.75 131.0625 83.5 C131.0625 84.16 131.0625 84.82 131.0625 85.5 C132.7125 85.83 134.3625 86.16 136.0625 86.5 C135.58091436 90.79328476 132.84357561 93.31645511 130 96.3125 C129.50048828 96.84512451 129.00097656 97.37774902 128.48632812 97.92651367 C108.83533654 118.65276009 80.64371675 131.03541895 52.03955078 131.85351562 C22.27894509 132.11832182 -7.65148595 121.00028768 -29.18359375 100.2890625 C-36.66432669 92.71283084 -36.66432669 92.71283084 -38.9375 88.5 C-38.6075 87.51 -38.2775 86.52 -37.9375 85.5 C-36.6175 85.5 -35.2975 85.5 -33.9375 85.5 C-33.9375 84.84 -33.9375 84.18 -33.9375 83.5 C-35.113125 83.12875 -35.113125 83.12875 -36.3125 82.75 C-39.3291501 81.31349995 -39.65315565 80.45279169 -40.9375 77.5 C-40.44121094 77.1596875 -39.94492187 76.819375 -39.43359375 76.46875 C-30.52255201 70.1109669 -23.09664159 61.76104011 -18.9375 51.5 C-19.17021636 47.13514919 -20.59037379 43.64333317 -22.375 39.6875 C-27.06334862 28.67123576 -29.30922167 16.94837025 -24.85546875 5.40625 C-23.19939425 1.96725273 -21.23298865 -0.52838351 -18.1875 -2.8125 C-11.35453287 -4.90035107 -6.03442567 -3.1964277 0 0 Z "
        fill="#A08775"
        transform="translate(71.9375,21.5)"
      />
      <path
        d="M0 0 C9.41633051 5.51006187 16.68565366 12.4500433 24.21484375 20.27612305 C28.32715168 24.52175369 32.38765532 28.0846877 37.31640625 31.35546875 C36.99307438 36.69044463 34.12005556 39.89414787 30.31640625 43.35546875 C23.27566342 48.24244398 17.11224547 51.53508567 8.31640625 50.35546875 C4.17917892 48.96602398 0.25227426 47.23511628 -3.68359375 45.35546875 C-4.44027344 45.05382812 -5.19695312 44.7521875 -5.9765625 44.44140625 C-7.68359375 43.35546875 -7.68359375 43.35546875 -8.43359375 41.23046875 C-8.51609375 40.61171875 -8.59859375 39.99296875 -8.68359375 39.35546875 C-1.2811973 39.22660692 5.95599708 39.55820973 13.31640625 40.35546875 C5.01073636 38.34256522 -3.17533662 37.78655378 -11.68359375 37.35546875 C-11.68359375 36.69546875 -11.68359375 36.03546875 -11.68359375 35.35546875 C-5.17707073 32.73810552 0.39808034 31.95675679 7.37890625 32.16796875 C8.24451172 32.18150391 9.11011719 32.19503906 10.00195312 32.20898438 C12.10704799 32.24387545 14.21181599 32.2976621 16.31640625 32.35546875 C16.31640625 31.69546875 16.31640625 31.03546875 16.31640625 30.35546875 C4.59157002 30.61220194 4.59157002 30.61220194 -6.93359375 32.48046875 C-10.88392206 33.40221202 -12.80851568 33.39273712 -16.68359375 32.35546875 C-19.38671875 30.39453125 -19.38671875 30.39453125 -21.93359375 27.98046875 C-22.784375 27.18898438 -23.63515625 26.3975 -24.51171875 25.58203125 C-27.89928082 22.10917086 -29.00646953 19.94847289 -29.12109375 15.16796875 C-28.99871269 9.38546362 -27.62056158 5.60219801 -23.68359375 1.35546875 C-16.85498404 -4.76254959 -7.76405184 -3.95629077 0 0 Z "
        fill="#614A3C"
        transform="translate(158.68359375,79.64453125)"
      />
      <path
        d="M0 0 C4.40651947 2.58427458 7.39681034 5.4266155 9.640625 10.09375 C10.79785968 14.56196168 11.03609486 17.9512815 9.515625 22.34375 C7.45219903 25.3701081 5.38449304 27.66168515 2.640625 30.09375 C2.11339844 30.57457031 1.58617187 31.05539063 1.04296875 31.55078125 C-1.37855713 33.5530908 -3.20746543 35.02353837 -6.41015625 35.21875 C-9.17401113 34.88563001 -11.84494971 34.21570822 -14.55078125 33.57421875 C-18.41260839 32.91357238 -22.26266426 32.7311342 -26.171875 32.53125 C-27.35426758 32.46647461 -27.35426758 32.46647461 -28.56054688 32.40039062 C-30.49331715 32.29496679 -32.42632526 32.19391906 -34.359375 32.09375 C-34.359375 32.75375 -34.359375 33.41375 -34.359375 34.09375 C-33.24820313 34.05894531 -32.13703125 34.02414063 -30.9921875 33.98828125 C-22.62904713 33.80780211 -15.23246848 33.84392272 -7.359375 37.09375 C-7.359375 37.75375 -7.359375 38.41375 -7.359375 39.09375 C-8.48214844 39.14273438 -9.60492188 39.19171875 -10.76171875 39.2421875 C-18.49324192 39.61577856 -25.85448417 40.04696159 -33.359375 42.09375 C-32.50279297 41.98546875 -32.50279297 41.98546875 -31.62890625 41.875 C-24.52271088 41.06157223 -17.50635266 40.99293057 -10.359375 41.09375 C-10.42578125 42.859375 -10.42578125 42.859375 -11.359375 45.09375 C-13.68970593 46.57313428 -15.80060425 47.72492934 -18.296875 48.84375 C-18.97838623 49.15086914 -19.65989746 49.45798828 -20.36206055 49.77441406 C-26.88020447 52.55438051 -32.01621449 53.51674203 -38.875 51.26953125 C-45.47558045 48.3843082 -51.0286706 43.85486929 -55.359375 38.09375 C-56.10546875 35.3125 -56.10546875 35.3125 -56.359375 33.09375 C-54.9259598 31.94281075 -53.48748591 30.79816965 -52.046875 29.65625 C-51.24636719 29.01816406 -50.44585937 28.38007812 -49.62109375 27.72265625 C-47.359375 26.09375 -47.359375 26.09375 -44.359375 25.09375 C-43.65715665 23.77879312 -42.99387093 22.44268927 -42.359375 21.09375 C-40.21547135 18.65178698 -37.80619296 16.487008 -35.421875 14.28125 C-34.7525293 13.65903564 -34.08318359 13.03682129 -33.39355469 12.39575195 C-24.27660519 4.08714297 -13.04831308 -5.01193482 0 0 Z "
        fill="#614A3C"
        transform="translate(101.359375,77.90625)"
      />
      <path
        d="M0 0 C1.04595337 0.53161743 1.04595337 0.53161743 2.11303711 1.07397461 C6.31606254 3.29703414 9.69716215 5.72300849 13.125 9.0625 C16.14170142 12.08271495 16.14170142 12.08271495 20.3125 12.6875 C21.55 12.295625 22.7875 11.90375 24.0625 11.5 C39.31801446 6.98326158 59.29464186 5.52872034 74.1171875 12.4609375 C75.99429102 13.45533945 75.99429102 13.45533945 79.0625 13.5 C81.59097098 11.54769661 83.77842405 9.34998696 86.05078125 7.10546875 C89.54594922 4.08176312 93.08092402 2.01293293 97.1875 -0.0625 C97.84419678 -0.40845215 98.50089355 -0.7544043 99.17749023 -1.11083984 C104.01972156 -3.47723932 107.68154772 -3.94746866 113.0625 -3.5 C118.74078748 -0.87925193 120.95538002 2.8515946 123.0625 8.5 C123.8125 11.375 123.8125 11.375 124.0625 14.5 C124.15724609 15.52287109 124.15724609 15.52287109 124.25390625 16.56640625 C124.72851222 25.85949724 122.19251816 35.95200492 117.75 44.125 C115.83182227 47.96135545 115.8552953 48.55533113 117.0625 52.5 C118.20878028 54.86525151 119.37542791 57.1071381 120.6875 59.375 C121.04505371 59.99487793 121.40260742 60.61475586 121.77099609 61.25341797 C125.97953097 68.32844718 131.05108475 73.2247468 138.0625 77.5 C137.9375 79.375 137.9375 79.375 137.0625 81.5 C134 82.75 134 82.75 131.0625 83.5 C131.0625 84.16 131.0625 84.82 131.0625 85.5 C132.7125 85.83 134.3625 86.16 136.0625 86.5 C135.58091436 90.79328476 132.84357561 93.31645511 130 96.3125 C129.50048828 96.84512451 129.00097656 97.37774902 128.48632812 97.92651367 C111.28253867 116.07165297 85.87636851 129.8753645 60.40527344 130.57275391 C53.95648397 130.66058612 47.51067394 130.6118877 41.0625 130.5 C41.0625 129.84 41.0625 129.18 41.0625 128.5 C43.00576172 128.35304687 43.00576172 128.35304687 44.98828125 128.203125 C61.97637589 126.81696603 78.38730164 124.53532525 94.0625 117.5 C95.06539062 117.05914062 96.06828125 116.61828125 97.1015625 116.1640625 C105.61071767 112.18432843 113.69118641 106.97905723 120.28125 100.2265625 C122.0625 98.5 122.0625 98.5 124.0625 98.5 C124.32804688 97.91734375 124.59359375 97.3346875 124.8671875 96.734375 C126.09552996 94.43825772 127.46564939 92.69643982 129.1875 90.75 C129.72632813 90.13640625 130.26515625 89.5228125 130.8203125 88.890625 C131.23023438 88.43171875 131.64015625 87.9728125 132.0625 87.5 C131.11375 87.396875 130.165 87.29375 129.1875 87.1875 C126.0625 86.5 126.0625 86.5 124.0625 83.5 C126.7025 82.18 129.3425 80.86 132.0625 79.5 C131.4025 78.88125 130.7425 78.2625 130.0625 77.625 C123.82760677 71.30229137 118.75398312 64.43163948 114.4375 56.6875 C114.07035889 56.05344238 113.70321777 55.41938477 113.32495117 54.76611328 C111.78295339 51.88462149 110.89727286 50.1742499 111.69140625 46.93359375 C112.37009766 45.72896484 112.37009766 45.72896484 113.0625 44.5 C113.47628906 43.50742188 113.89007813 42.51484375 114.31640625 41.4921875 C115.19105114 39.40870505 116.06605298 37.32537243 116.94140625 35.2421875 C119.14099448 29.86201002 119.27951202 25.48990895 119.3125 19.75 C119.333125 18.86828125 119.35375 17.9865625 119.375 17.078125 C119.40853886 11.44359705 118.79651054 7.46368904 116.0625 2.5 C112.01992135 0.47871068 107.44767675 0.93020633 103.0625 1.5 C95.48678331 4.28378369 89.46911504 9.37223979 83.47265625 14.64453125 C81.15031913 16.43239208 79.94934145 17.27482637 77.0625 17.5 C74.94921875 16.9765625 74.94921875 16.9765625 72.75 16.125 C57.97211127 10.44731923 37.56205424 11.64342505 22.8203125 16.72265625 C19.9192747 17.54037087 18.77516919 17.73406544 16.0625 16.5 C14.16015625 14.8984375 14.16015625 14.8984375 12.125 12.875 C5.29796542 6.66452848 -2.53145926 1.20509675 -12 0.75 C-15.75639218 1.00698753 -16.64865916 1.24554497 -19.5625 3.8125 C-23.8330436 12.15947158 -23.40648042 24.32338242 -20.66796875 33.20703125 C-18.87851888 38.24422914 -16.91334378 43.03623433 -13.9375 47.5 C-14.24010357 51.89531689 -16.2769697 55.43966234 -18.4375 59.1875 C-18.78772217 59.79891846 -19.13794434 60.41033691 -19.4987793 61.0402832 C-22.94324577 66.84792874 -27.17663659 71.72035607 -31.9375 76.5 C-32.51886719 77.08394531 -33.10023437 77.66789062 -33.69921875 78.26953125 C-34.10785156 78.67558594 -34.51648437 79.08164063 -34.9375 79.5 C-32.6275 80.49 -30.3175 81.48 -27.9375 82.5 C-28.1875 84.375 -28.1875 84.375 -28.9375 86.5 C-31 87.75 -31 87.75 -32.9375 88.5 C-26.88033313 102.88995445 -7.54604002 113.07996326 6.08984375 118.96875 C15.42045171 122.72838753 25.34871527 125.02950266 35.20166016 126.9440918 C37.0625 127.5 37.0625 127.5 39.0625 129.5 C21.81209186 131.17239145 5.80120562 123.76663591 -8.9375 115.5 C-9.93265625 114.94570312 -10.9278125 114.39140625 -11.953125 113.8203125 C-21.88564003 107.8891821 -33.3749044 98.80905748 -38.9375 88.5 C-38.6075 87.51 -38.2775 86.52 -37.9375 85.5 C-36.6175 85.5 -35.2975 85.5 -33.9375 85.5 C-33.9375 84.84 -33.9375 84.18 -33.9375 83.5 C-35.113125 83.12875 -35.113125 83.12875 -36.3125 82.75 C-39.3291501 81.31349995 -39.65315565 80.45279169 -40.9375 77.5 C-40.44121094 77.1596875 -39.94492187 76.819375 -39.43359375 76.46875 C-30.52255201 70.1109669 -23.09664159 61.76104011 -18.9375 51.5 C-19.17021636 47.13514919 -20.59037379 43.64333317 -22.375 39.6875 C-27.06334862 28.67123576 -29.30922167 16.94837025 -24.85546875 5.40625 C-23.19939425 1.96725273 -21.23298865 -0.52838351 -18.1875 -2.8125 C-11.35453287 -4.90035107 -6.03442567 -3.1964277 0 0 Z "
        fill="#5C493D"
        transform="translate(71.9375,21.5)"
      />
      <path
        d="M0 0 C2.07803895 1.8769384 3.7407491 3.48149821 5 6 C5 6.66 5 7.32 5 8 C4.34 8.61875 3.68 9.2375 3 9.875 C0.64018196 11.88550499 0.64018196 11.88550499 1.0625 15.0625 C2.00638999 18.02002196 2.49621396 19.23807649 5 21 C7.10332891 21.71447643 7.10332891 21.71447643 9 22 C9 23.98 9 25.96 9 28 C2.68329718 29.21475054 2.68329718 29.21475054 -0.1875 28.3125 C-2.36310729 26.73706023 -4.16938004 24.96137853 -6 23 C-5.12269491 25.70502403 -4.28331029 27.68400006 -2.375 29.8125 C1.21576218 31.60788109 3.99688164 31.25416625 8 31 C8.99 30.67 9.98 30.34 11 30 C11.66 30.33 12.32 30.66 13 31 C18.79355886 31.52034052 18.79355886 31.52034052 23.9375 29.1875 C26.20310389 27.09189663 26.20310389 27.09189663 27 24 C26.34 24 25.68 24 25 24 C24.443125 24.639375 23.88625 25.27875 23.3125 25.9375 C20.27744073 28.64444475 17.99831079 28.77787162 14 29 C13.34 28.67 12.68 28.34 12 28 C12 26.02 12 24.04 12 22 C12.94875 21.54625 13.8975 21.0925 14.875 20.625 C18.00313679 19.19761746 18.00313679 19.19761746 20 17 C20.50010524 14.04230823 20.50010524 14.04230823 20 11 C18.11922127 9.08743288 18.11922127 9.08743288 16 8 C17.20358597 4.57440916 18.35892646 2.46741391 21 0 C21.51949219 0.54269531 22.03898437 1.08539063 22.57421875 1.64453125 C27.66733325 7.1923596 27.66733325 7.1923596 34 11 C37.48055874 10.82432642 37.48055874 10.82432642 41 10 C46.17070178 8.93521845 51.12355251 8.88305916 56.375 8.9375 C57.62216797 8.94426758 57.62216797 8.94426758 58.89453125 8.95117188 C60.92971897 8.96286836 62.96486923 8.98080065 65 9 C65 9.66 65 10.32 65 11 C63.09927734 11.07347656 63.09927734 11.07347656 61.16015625 11.1484375 C59.46091904 11.22354191 57.76170124 11.29908632 56.0625 11.375 C54.81629883 11.42140625 54.81629883 11.42140625 53.54492188 11.46875 C47.81752631 11.73617703 42.56641529 12.61822587 37 14 C37 14.66 37 15.32 37 16 C37.94359375 15.96519531 38.8871875 15.93039063 39.859375 15.89453125 C48.40914286 15.71426506 55.75619594 16.42093281 64 19 C64 19.33 64 19.66 64 20 C55.99305886 19.4017071 47.99394289 18.7529365 40 18 C40.495 18.99 40.495 18.99 41 20 C41.64923219 25.225787 41.44011305 29.83802385 38.453125 34.37109375 C32.4451487 41.10584137 24.06062264 44.62281074 15.2265625 45.28125 C4.89759716 45.63188313 -4.72901846 44.76716672 -13 38 C-20.1444886 30.50248961 -20.1444886 30.50248961 -20.125 24.5 C-20.12757812 23.7059375 -20.13015625 22.911875 -20.1328125 22.09375 C-20 20 -20 20 -19 18 C-21.0836309 18.14151828 -23.16689938 18.28837936 -25.25 18.4375 C-26.41015625 18.51871094 -27.5703125 18.59992188 -28.765625 18.68359375 C-31.32620306 18.93408508 -33.53038003 19.36130518 -36 20 C-38.33300933 20.03888349 -40.66709801 20.0448635 -43 20 C-42.67 19.34 -42.34 18.68 -42 18 C-33.50461146 15.2693394 -24.81938282 15.81773951 -16 16 C-16 15.34 -16 14.68 -16 14 C-24.90908049 11.74536784 -33.8631672 11.40278381 -43 11 C-43 10.34 -43 9.68 -43 9 C-26.29243674 8.65472315 -26.29243674 8.65472315 -20.8125 10.0625 C-16.26050613 11.18184275 -13.35274453 11.33631762 -9.21875 8.98828125 C-5.4543826 6.46009382 -2.65463858 3.71649401 0 0 Z "
        fill="#EDE3D2"
        transform="translate(110,101)"
      />
      <path
        d="M0 0 C0.33 0.66 0.66 1.32 1 2 C-4.445 5.96 -4.445 5.96 -10 10 C-8.56815161 17.15924193 -4.55122487 20.59787066 1.40234375 24.625 C7.19455322 27.84594428 12.42572626 29.38257259 19 28 C22.54593365 26.60652438 25.9181924 25.04167557 29.3125 23.3125 C32 22 32 22 34 22 C34.09474609 22.8353125 34.09474609 22.8353125 34.19140625 23.6875 C35.26478753 30.37636017 37.78920143 34.64617587 43 39 C52.8095097 44.80186386 65.21784344 45.72312492 76.24609375 43.28125 C82.87491117 41.00115746 88.95017758 38.14306105 92.875 32.125 C94.09475305 28.73679708 94.64230627 25.5769373 95 22 C97.82767956 22.89295144 100.5961439 23.82096396 103.30859375 25.0234375 C109.97856862 27.95781022 115.52458944 29.65705641 122.57421875 27.046875 C128.91635417 24.05118772 135.38291276 20.22942803 139 14 C139 12.68 139 11.36 139 10 C137.09454662 8.08678346 137.09454662 8.08678346 134.625 6.4375 C131.68524896 4.3423441 130.03038158 3.04557237 128 0 C132.46405671 1.41543262 136.71234314 3.11944875 141 5 C142.31196926 5.56373679 143.62445291 6.12627826 144.9375 6.6875 C146.4534375 7.3371875 146.4534375 7.3371875 148 8 C140.4847885 23.9654954 120.08133289 35.79483804 104.11767578 41.69580078 C88.97857396 46.89580163 73.02070751 49.77658726 57 49 C57 49.66 57 50.32 57 51 C62.94 51 68.88 51 75 51 C75 51.33 75 51.66 75 52 C71.97910522 52.02716089 68.95845871 52.04691657 65.9375 52.0625 C65.08994141 52.07087891 64.24238281 52.07925781 63.36914062 52.08789062 C58.4638278 52.10683006 53.83555245 51.83326345 49 51 C50.32 50.34 51.64 49.68 53 49 C52.35675781 48.8548999 51.71351562 48.7097998 51.05078125 48.56030273 C26.96578214 43.0479817 6.94294725 35.56050433 -11 18 C-11.71542969 17.30003906 -12.43085937 16.60007812 -13.16796875 15.87890625 C-14.79356846 14.26628538 -16.40486448 12.64267267 -18 11 C-17 8 -17 8 -15.0625 7 C-14.0415625 6.505 -14.0415625 6.505 -13 6 C-12.34 5.01 -11.68 4.02 -11 3 C-8.90625 2.3046875 -8.90625 2.3046875 -6.5 1.875 C-3.14280543 1.26373364 -3.14280543 1.26373364 0 0 Z "
        fill="#9E8573"
        transform="translate(56,101)"
      />
      <path
        d="M0 0 C5.51110475 3.40090479 9.89137388 7.87472052 14.36865234 12.49584961 C21.11443513 19.45090247 27.20063254 24.74761281 36 29 C37.10214844 29.55171875 38.20429688 30.1034375 39.33984375 30.671875 C40.21769531 31.11015625 41.09554687 31.5484375 42 32 C39.62506641 34.7499231 37.51305892 36.04189302 34 37 C24.24645303 36.63194162 18.8593551 32.10710819 12.42993164 25.36206055 C5.45589591 18.18449073 -3.39062074 10.88108602 -13.59765625 9.69921875 C-18.64051922 9.67524317 -21.82343207 9.86757406 -26 13 C-26.66 13 -27.32 13 -28 13 C-28.268125 13.556875 -28.53625 14.11375 -28.8125 14.6875 C-30.10403977 17.20260376 -31.47768865 19.6172518 -33 22 C-33.33 22 -33.66 22 -34 22 C-34.45058362 14.490273 -34.6333366 8.22792647 -30 2 C-21.22463487 -6.55035576 -10.21412277 -5.48719864 0 0 Z "
        fill="#EEE3D2"
        transform="translate(163,68)"
      />
      <path
        d="M0 0 C4.99615678 2.96967823 8.77732031 6.42961717 10.65234375 12.0546875 C10.72171437 14.28287191 10.73691459 16.51303274 10.71484375 18.7421875 C10.70582031 19.92167969 10.69679688 21.10117188 10.6875 22.31640625 C10.67589844 23.22003906 10.66429688 24.12367187 10.65234375 25.0546875 C9.01763217 22.88581664 7.40840746 20.70981205 5.83984375 18.4921875 C2.6618981 14.95104806 -0.07606264 13.38022296 -4.828125 12.69921875 C-13.51810749 12.24572178 -19.50232784 14.866404 -26.13671875 20.3671875 C-28.9215842 22.88353975 -31.64340564 25.45210045 -34.34765625 28.0546875 C-40.58242681 33.92270685 -47.34041443 39.86703663 -56.34765625 40.0546875 C-59.14411909 39.25133999 -61.66419418 38.21135218 -64.34765625 37.0546875 C-64.34765625 36.0646875 -64.34765625 35.0746875 -64.34765625 34.0546875 C-63.45304687 33.65378906 -62.5584375 33.25289062 -61.63671875 32.83984375 C-52.12994063 28.43088405 -45.19412847 23.10212986 -37.8984375 15.50390625 C-28.44079484 5.71962601 -14.60300214 -5.8800774 0 0 Z "
        fill="#EEE4D2"
        transform="translate(101.34765625,64.9453125)"
      />
      <path
        d="M0 0 C2.88902475 1.38146914 5.41853605 3.11459958 8 5 C8.845625 5.5775 9.69125 6.155 10.5625 6.75 C14.16043505 10.07117081 17.57657887 13.72514534 20 18 C19.6953125 20.28125 19.6953125 20.28125 19 22 C15 22 15 22 13.25390625 20.35546875 C12.69574219 19.64003906 12.13757813 18.92460938 11.5625 18.1875 C7.91302306 13.79872493 7.91302306 13.79872493 3 11 C-0.70893908 10.74900133 -0.70893908 10.74900133 -4 11 C-6.90408444 16.6266636 -6.7896859 22.06847733 -5.171875 28.07421875 C-3.86965551 32.02460849 -2.50190247 35.89484937 -0.78125 39.68359375 C0 42 0 42 -1.375 44.8125 C-1.91125 45.534375 -2.4475 46.25625 -3 47 C-6 46 -6 46 -7.5703125 42.98046875 C-8.09972447 41.72078749 -8.61752839 40.45617903 -9.125 39.1875 C-9.38925781 38.55779297 -9.65351562 37.92808594 -9.92578125 37.27929688 C-12.6065278 30.79515611 -13.20766552 25.56785524 -13.25 18.625 C-13.270625 17.78710938 -13.29125 16.94921875 -13.3125 16.0859375 C-13.3504848 10.04635355 -12.13758363 6.20637545 -8.75 1.125 C-5.72448762 -0.81997224 -3.51205651 -0.46059757 0 0 Z "
        fill="#EADECE"
        transform="translate(62,22)"
      />
      <path
        d="M0 0 C3.44946596 2.45093634 4.7516531 5.02319869 6 9 C7.60246308 22.85803527 5.94421044 35.26471862 -2 47 C-2.66 47 -3.32 47 -4 47 C-5.46371605 44.67527451 -6.06363852 43.46774313 -5.6875 40.703125 C-4.96149138 37.84859109 -3.98249805 35.19045186 -2.9375 32.4375 C-0.84558916 26.29108559 -0.13050067 20.46058221 -1 14 C-2.70017517 10.68671482 -2.70017517 10.68671482 -6.0625 10.375 C-12.7995773 11.44437735 -17.18018028 15.9138652 -21.5625 20.9375 C-22.2740625 21.9584375 -22.2740625 21.9584375 -23 23 C-24.32 22.34 -25.64 21.68 -27 21 C-23.61891231 10.1805194 -11.9679437 -1.95839079 0 0 Z "
        fill="#EADDCC"
        transform="translate(186,22)"
      />
      <path
        d="M0 0 C2.98201561 3.00981995 3.43190085 5.33423421 3.4375 9.5 C3.27059086 15.96971624 2.04009503 22.23883226 -1 28 C-3.140625 29.3359375 -3.140625 29.3359375 -5 30 C-6.33927721 28.54712339 -7.67126847 27.08752741 -9 25.625 C-9.7425 24.81289063 -10.485 24.00078125 -11.25 23.1640625 C-13 21 -13 21 -13 19 C-13.598125 18.731875 -14.19625 18.46375 -14.8125 18.1875 C-16.97224808 17.01506533 -18.35790256 15.80630718 -20 14 C-16.35807822 5.80567599 -9.55404286 -1.65358434 0 0 Z "
        fill="#624C3D"
        transform="translate(183,32)"
      />
      <path
        d="M0 0 C4.75109229 -0.59388654 7.21521443 -0.22929213 11.125 2.625 C14.57161757 5.46141874 17.41230722 8.36105703 20 12 C20 15 20 15 18.49609375 16.54296875 C17.81675781 17.08566406 17.13742188 17.62835938 16.4375 18.1875 C12.14890118 21.76515463 8.56378759 25.71231805 5 30 C2 29 2 29 0.8671875 26.85546875 C0.37605469 25.53482422 0.37605469 25.53482422 -0.125 24.1875 C-0.45757812 23.31480469 -0.79015625 22.44210938 -1.1328125 21.54296875 C-3.35805145 15.01760589 -4.233326 8.92914924 -1.5 2.4375 C-1.005 1.633125 -0.51 0.82875 0 0 Z "
        fill="#60493B"
        transform="translate(58,32)"
      />
      <path
        d="M0 0 C2.625 1.5625 2.625 1.5625 3.625 2.5625 C4.0625 5.3125 4.0625 5.3125 3.625 8.5625 C1.80991437 10.77966156 0.06493446 11.93587702 -2.375 13.5625 C-3.365 13.5625 -4.355 13.5625 -5.375 13.5625 C-5.375 15.5425 -5.375 17.5225 -5.375 19.5625 C0.45805551 19.87653234 0.45805551 19.87653234 5.625 17.5625 C6.285 16.5725 6.945 15.5825 7.625 14.5625 C8.615 14.8925 9.605 15.2225 10.625 15.5625 C8.73072416 19.0669103 7.21919117 21.71683427 3.625 23.5625 C-0.2312283 23.99183716 -3.66868468 23.79793844 -7.375 22.5625 C-8.035 22.8925 -8.695 23.2225 -9.375 23.5625 C-14.07194439 24.03219444 -17.06267539 24.27159005 -20.875 21.3125 C-23.375 18.5625 -23.375 18.5625 -23.375 14.5625 C-21.395 15.5525 -21.395 15.5525 -19.375 16.5625 C-19.375 17.2225 -19.375 17.8825 -19.375 18.5625 C-18.116875 18.7275 -16.85875 18.8925 -15.5625 19.0625 C-14.50095703 19.20171875 -14.50095703 19.20171875 -13.41796875 19.34375 C-11.22028294 19.615733 -11.22028294 19.615733 -8.375 19.5625 C-8.375 17.5825 -8.375 15.6025 -8.375 13.5625 C-9.1175 13.500625 -9.86 13.43875 -10.625 13.375 C-14.32708276 12.28120282 -15.45896476 10.87871484 -17.375 7.5625 C-17.5 4.4375 -17.5 4.4375 -16.375 1.5625 C-11.04420448 -2.24521109 -5.96358339 -2.54004478 0 0 Z "
        fill="#47362B"
        transform="translate(127.375,109.4375)"
      />
      <path
        d="M0 0 C0 0.99 0 1.98 0 3 C-0.60328125 3.08636719 -1.2065625 3.17273438 -1.828125 3.26171875 C-7.20030902 4.20276275 -7.20030902 4.20276275 -11.5 7.4375 C-15.792847 14.77111362 -15.34261682 26.2357452 -13.43896484 34.40869141 C-11.63743369 40.25280385 -9.40020211 45.89969683 -6 51 C-6.28582629 55.55734147 -8.52593473 59.24106249 -10.75 63.125 C-11.08515625 63.74503906 -11.4203125 64.36507812 -11.765625 65.00390625 C-13.99726522 68.93463618 -15.99149327 70.96612713 -20 73 C-21.36984198 74.29579647 -22.7151049 75.61992749 -24 77 C-24.66 76.67 -25.32 76.34 -26 76 C-25.50371094 75.48953125 -25.00742187 74.9790625 -24.49609375 74.453125 C-19.09031673 68.66781525 -13.95387799 62.41974099 -11 55 C-11.23867215 50.6357093 -12.65286468 47.14335336 -14.4375 43.1875 C-19.12584862 32.17123576 -21.37172167 20.44837025 -16.91796875 8.90625 C-15.26189425 5.46725273 -13.29548865 2.97161649 -10.25 0.6875 C-6.80286602 -0.36579094 -3.59507203 -0.11983573 0 0 Z "
        fill="#625045"
        transform="translate(64,18)"
      />
      <path
        d="M0 0 C3.12826838 0.29100171 4.37427733 1.19380207 6.6875 3.25 C7.079375 2.755 7.47125 2.26 7.875 1.75 C9.6875 0.25 9.6875 0.25 12.25 -0.0625 C14.6875 0.25 14.6875 0.25 16.6875 2.25 C16.6875 7.37353571 14.57835161 10.05581461 11.35546875 13.734375 C9.578372 15.3491608 7.87467247 16.2821406 5.6875 17.25 C4.37162059 16.12895467 3.05989647 15.00303035 1.75 13.875 C1.01910156 13.24851562 0.28820312 12.62203125 -0.46484375 11.9765625 C-3.20719844 9.41393931 -3.3021217 8.54578163 -3.4375 4.6875 C-3.27993957 0.35458806 -3.27993957 0.35458806 0 0 Z "
        fill="#E0CCB2"
        transform="translate(114.3125,50.75)"
      />
      <path
        d="M0 0 C3.4375 0.5625 3.4375 0.5625 5.875 2.0625 C8.07578902 5.58376244 8.24164661 8.51689643 7.4375 12.5625 C5.875 15.0625 5.875 15.0625 3.4375 16.5625 C0 17.125 0 17.125 -3.5625 16.5625 C-6.94371991 14.11651113 -8.33186783 12.66953441 -9.1875 8.5625 C-8.06378731 3.1686791 -5.3834601 0.85002002 0 0 Z "
        fill="#443026"
        transform="translate(147.5625,87.4375)"
      />
      <path
        d="M0 0 C0.66 0.66 1.32 1.32 2 2 C0.68 2.33 -0.64 2.66 -2 3 C-2 3.99 -2 4.98 -2 6 C-1.01 6 -0.02 6 1 6 C1.33 5.01 1.66 4.02 2 3 C2.66 3 3.32 3 4 3 C5.42662219 5.85324437 5.31033868 7.83454549 5 11 C3.5 13.875 3.5 13.875 1 16 C-2.99893269 16.94237143 -5.98105682 16.61136591 -9.5 14.5 C-11.61897146 10.9683809 -11.79841448 8.01676563 -11 4 C-8.14738346 -0.56418646 -5.12294609 -0.56921623 0 0 Z "
        fill="#412F24"
        transform="translate(97,88)"
      />
      <path
        d="M0 0 C0 0.99 0 1.98 0 3 C-0.66644531 3.32871094 -1.33289063 3.65742188 -2.01953125 3.99609375 C-8.58241698 7.38309352 -14.04407606 11.26850281 -19.58984375 16.14453125 C-21.90974807 17.93051918 -23.11702906 18.76843607 -26 19 C-28.04296875 18.51171875 -28.04296875 18.51171875 -30.1875 17.6875 C-34.72872144 16.04300453 -39.27005887 14.95046098 -44 14 C-40.18991922 11.45994615 -38.54901828 11.6389668 -34 12 C-32.39444324 12.68424734 -30.79036022 13.37195959 -29.1875 14.0625 C-26.64214561 15.02450732 -26.64214561 15.02450732 -24 15 C-21.11357174 13.14248781 -18.97671804 10.97373196 -16.59375 8.5078125 C-12.24741006 4.3054778 -6.21321669 0 0 0 Z "
        fill="#59453A"
        transform="translate(175,20)"
      />
      <path
        d="M0 0 C0 0.99 0 1.98 0 3 C-0.60328125 3.08636719 -1.2065625 3.17273438 -1.828125 3.26171875 C-7.20030902 4.20276275 -7.20030902 4.20276275 -11.5 7.4375 C-13.68245715 11.1658643 -14.15220018 14.0783189 -14.31640625 18.32421875 C-14.35830078 19.35224609 -14.40019531 20.38027344 -14.44335938 21.43945312 C-14.48267578 22.51130859 -14.52199219 23.58316406 -14.5625 24.6875 C-14.60568359 25.77095703 -14.64886719 26.85441406 -14.69335938 27.97070312 C-14.79946838 30.64700791 -14.90152361 33.32340526 -15 36 C-15.33 34.68 -15.66 33.36 -16 32 C-16.66 32 -17.32 32 -18 32 C-20.4190293 23.78700535 -19.70389666 14.69149605 -16 7 C-11.49032211 0.16274642 -7.74629419 -0.25820981 0 0 Z "
        fill="#6C5B50"
        transform="translate(64,18)"
      />
      <path
        d="M0 0 C4.89820824 4.45291658 7.2227242 9.90905256 7.75 16.5 C7.81530097 19.83537259 7.80932484 23.16462553 7.75 26.5 C6.76 26.83 5.77 27.16 4.75 27.5 C3.31946073 24.63892147 3.5172871 22.0004085 3.375 18.8125 C3.02044317 13.33093879 2.5119908 9.25062418 -0.25 4.5 C-2.81893838 3.21553081 -5.01576337 3.17022856 -7.875 2.9375 C-9.37933594 2.81181641 -9.37933594 2.81181641 -10.9140625 2.68359375 C-11.68492187 2.62300781 -12.45578125 2.56242187 -13.25 2.5 C-13.58 1.51 -13.91 0.52 -14.25 -0.5 C-9.04691428 -2.23436191 -4.91794144 -2.26981912 0 0 Z "
        fill="#665448"
        transform="translate(188.25,19.5)"
      />
      <path
        d="M0 0 C7.32264654 3.12449004 15.08863546 7.29759271 20.30078125 13.46484375 C21.80399858 14.9515007 21.80399858 14.9515007 24.2890625 14.7734375 C25.18238281 14.64582031 26.07570312 14.51820312 26.99609375 14.38671875 C27.89714844 14.26683594 28.79820313 14.14695312 29.7265625 14.0234375 C30.75716797 13.86294922 30.75716797 13.86294922 31.80859375 13.69921875 C32.30359375 14.68921875 32.30359375 14.68921875 32.80859375 15.69921875 C32.14859375 15.69921875 31.48859375 15.69921875 30.80859375 15.69921875 C30.80859375 16.35921875 30.80859375 17.01921875 30.80859375 17.69921875 C27.76126747 19.11983221 25.18755881 19.86060216 21.80859375 19.69921875 C19.05486882 17.80887293 16.90822275 15.60946517 14.5625 13.234375 C8.90544324 8.0266731 1.47979645 3.83359253 -6.19140625 2.69921875 C-2.84266215 -0.39016931 -2.84266215 -0.39016931 0 0 Z "
        fill="#5C483D"
        transform="translate(67.19140625,19.30078125)"
      />
      <path
        d="M0 0 C0 0.33 0 0.66 0 1 C-0.94875 1.28875 -1.8975 1.5775 -2.875 1.875 C-6.05211578 2.76825109 -6.05211578 2.76825109 -8 5 C-8.50306876 10.1573572 -8.50306876 10.1573572 -7 14.9375 C-3.78963377 16.64300706 -0.60700273 16.70434404 3 17 C1 19 1 19 -2.3125 19.375 C-6.54545677 18.94452982 -8.03360375 17.96639625 -11 15 C-12.55024464 11.89951072 -12.28992015 9.42105782 -12 6 C-8.45117117 0.55846246 -6.32475323 -0.13749464 0 0 Z "
        fill="#DDCDBE"
        transform="translate(95,87)"
      />
      <path
        d="M0 0 C0.33 0.99 0.66 1.98 1 3 C-2.33333333 6.33333333 -5.66666667 9.66666667 -9 13 C-8.6814823 15.10820797 -8.6814823 15.10820797 -8 17 C-12.71346154 15.51153846 -12.71346154 15.51153846 -14.1640625 12.921875 C-14.43992187 12.28765625 -14.71578125 11.6534375 -15 11 C-14.33613281 10.62488281 -13.67226563 10.24976562 -12.98828125 9.86328125 C-8.02478209 6.98662553 -3.8033401 4.31045211 0 0 Z "
        fill="#554237"
        transform="translate(46,88)"
      />
      <path
        d="M0 0 C3.54966001 -0.50709429 4.81073891 -0.13037986 7.8125 1.9375 C10.37343063 5.52280288 10.74698396 7.52517852 10.48046875 11.83984375 C9.66581629 15.50246824 8.07504636 16.97177793 5 19 C1.1875 19.3125 1.1875 19.3125 -2 19 C1 17 1 17 3.125 16 C5.17044538 15.14139842 5.17044538 15.14139842 6 13 C6.56046855 7.75154513 6.56046855 7.75154513 4.6875 3.125 C4.130625 2.75375 3.57375 2.3825 3 2 C2.01 1.34 1.02 0.68 0 0 Z "
        fill="#D7C8B8"
        transform="translate(148,87)"
      />
      <path
        d="M0 0 C10.53453398 -0.34063763 19.80478292 0.02122353 30 3 C29.01 3.495 29.01 3.495 28 4 C27.67 4.66 27.34 5.32 27 6 C26.47535156 5.79503906 25.95070313 5.59007813 25.41015625 5.37890625 C17.06984239 2.47853088 8.74091872 2.29406803 0 2 C0 1.34 0 0.68 0 0 Z "
        fill="#D4C1B2"
        transform="translate(67,110)"
      />
      <path
        d="M0 0 C0 0.66 0 1.32 0 2 C-1.90072266 2.07347656 -1.90072266 2.07347656 -3.83984375 2.1484375 C-5.53908096 2.22354191 -7.23829876 2.29908632 -8.9375 2.375 C-10.18370117 2.42140625 -10.18370117 2.42140625 -11.45507812 2.46875 C-16.55307388 2.70678871 -21.17902991 3.37319939 -26.09204102 4.77978516 C-28 5 -28 5 -31 3 C-20.50987598 -0.11367639 -10.84981163 -0.32878217 0 0 Z "
        fill="#CCB9AA"
        transform="translate(175,110)"
      />
      <path
        d="M0 0 C6.6 0 13.2 0 20 0 C19.34 1.32 18.68 2.64 18 4 C12.39 4 6.78 4 1 4 C0.67 2.68 0.34 1.36 0 0 Z "
        fill="#A6907F"
        transform="translate(111,145)"
      />
      <path
        d="M0 0 C1.12862175 5.36095333 1.09688221 10.55306686 1 16 C0.01 16.33 -0.98 16.66 -2 17 C-3.50156874 13.99686252 -3.09281204 11.20932478 -3.0625 7.875 C-3.05347656 6.59367187 -3.04445312 5.31234375 -3.03515625 3.9921875 C-3.02355469 3.00476562 -3.01195312 2.01734375 -3 1 C-1 0 -1 0 0 0 Z "
        fill="#625246"
        transform="translate(195,30)"
      />
      <path
        d="M0 0 C-0.66 1.32 -1.32 2.64 -2 4 C-2 3.34 -2 2.68 -2 2 C-4.0836309 2.14151828 -6.16689938 2.28837936 -8.25 2.4375 C-9.99023438 2.55931641 -9.99023438 2.55931641 -11.765625 2.68359375 C-14.32620306 2.93408508 -16.53038003 3.36130518 -19 4 C-21.33300933 4.03888349 -23.66709801 4.0448635 -26 4 C-25.67 3.34 -25.34 2.68 -25 2 C-16.77187729 -0.59835454 -8.53013903 -0.18839571 0 0 Z "
        fill="#CDBAAB"
        transform="translate(93,117)"
      />
      <path
        d="M0 0 C3.21524305 1.40844718 5.32183868 3.10344786 7.75 5.625 C8.67039062 6.57246094 8.67039062 6.57246094 9.609375 7.5390625 C10.29773438 8.26222656 10.29773438 8.26222656 11 9 C10.01 9.495 10.01 9.495 9 10 C8.67 10.66 8.34 11.32 8 12 C5.03 9.03 2.06 6.06 -1 3 C-0.67 2.01 -0.34 1.02 0 0 Z "
        fill="#5D4A3E"
        transform="translate(40,115)"
      />
      <path
        d="M0 0 C3.82868919 1.45226142 5.2538953 3.33318013 7 7 C7 8.32 7 9.64 7 11 C6.01 11 5.02 11 4 11 C3.32591692 9.73308493 2.66099503 8.46129251 2 7.1875 C1.62875 6.47980469 1.2575 5.77210937 0.875 5.04296875 C0 3 0 3 0 0 Z "
        fill="#57473B"
        transform="translate(187,20)"
      />
      <path
        d="M0 0 C0.99 0 1.98 0 3 0 C5 3 5 3 4.6875 5.5625 C4 8 4 8 3 10 C2.01 10 1.02 10 0 10 C0 6.7 0 3.4 0 0 Z "
        fill="#5A463A"
        transform="translate(53,66)"
      />
      <path
        d="M0 0 C0.66 0 1.32 0 2 0 C1.67 5.94 1.34 11.88 1 18 C-0.9611714 14.07765719 -1.25031231 12.63450437 -1.1875 8.4375 C-1.18105469 7.48746094 -1.17460938 6.53742187 -1.16796875 5.55859375 C-1 3 -1 3 0 0 Z "
        fill="#544236"
        transform="translate(47,30)"
      />
      <path
        d="M0 0 C-0.47205119 4.24846075 -2.88877522 6.26819288 -6 9 C-6.66 9 -7.32 9 -8 9 C-9.34882408 9.63474075 -10.6846659 10.29848848 -12 11 C-2.73033708 0 -2.73033708 0 0 0 Z "
        fill="#614E42"
        transform="translate(208,108)"
      />
      <path
        d="M0 0 C-1 2 -1 2 -3.75 3.125 C-6.70186896 3.91973395 -8.97219837 4.17810598 -12 4 C-7.97476284 -0.30283972 -5.79398913 -1.40934871 0 0 Z "
        fill="#564237"
        transform="translate(161,144)"
      />
      <path
        d="M0 0 C0.66 0.33 1.32 0.66 2 1 C1.9375 2.8125 1.9375 2.8125 1 5 C-2.5625 6.75 -2.5625 6.75 -6 8 C-6 4 -6 4 -4 2 C-2 0.8125 -2 0.8125 0 0 Z "
        fill="#615045"
        transform="translate(208,98)"
      />
      <path
        d="M0 0 C3.62732988 -0.51818998 4.80004811 -0.14663138 7.8125 2.0625 C10.48534354 5.65174704 10.42880585 7.62618037 10 12 C9.34 12 8.68 12 8 12 C7.84144531 11.37351562 7.68289062 10.74703125 7.51953125 10.1015625 C6.2094023 4.84375314 6.2094023 4.84375314 2.3125 1.4375 C1.549375 1.293125 0.78625 1.14875 0 1 C0 0.67 0 0.34 0 0 Z "
        fill="#E1D2C4"
        transform="translate(148,87)"
      />
      <path
        d="M0 0 C0.33 0.99 0.66 1.98 1 3 C-2.63 3 -6.26 3 -10 3 C-10 2.34 -10 1.68 -10 1 C-6.78548731 -0.60725635 -3.56387464 -0.05748185 0 0 Z "
        fill="#816959"
        transform="translate(125,111)"
      />
      <path
        d="M0 0 C0 0.33 0 0.66 0 1 C-2.26711017 1.55704424 -4.53887387 2.09517831 -6.8125 2.625 C-8.70935547 3.07746094 -8.70935547 3.07746094 -10.64453125 3.5390625 C-14 4 -14 4 -17 2 C-11.21642935 -0.01167675 -6.09781001 -0.22084624 0 0 Z "
        fill="#DDCBBC"
        transform="translate(161,111)"
      />
      <path
        d="M0 0 C3.91402949 1.26941497 5.79072873 2.51167694 8 6 C3.72290301 6 2.44069624 5.29379749 -1 3 C-0.67 2.01 -0.34 1.02 0 0 Z "
        fill="#523F34"
        transform="translate(75,24)"
      />
      <path
        d="M0 0 C4.54805635 -0.17835515 7.8794254 0.00214565 12 2 C12 2.33 12 2.66 12 3 C10.56260487 3.02712066 9.12506137 3.04645067 7.6875 3.0625 C6.48673828 3.07990234 6.48673828 3.07990234 5.26171875 3.09765625 C3 3 3 3 0 2 C0 1.34 0 0.68 0 0 Z "
        fill="#524034"
        transform="translate(99,148)"
      />
      <path
        d="M0 0 C0.33 0.99 0.66 1.98 1 3 C-0.98 4.98 -2.96 6.96 -5 9 C-5.99 8.67 -6.98 8.34 -8 8 C-5.33333333 5.33333333 -2.66666667 2.66666667 0 0 Z "
        fill="#554338"
        transform="translate(201,115)"
      />
      <path
        d="M0 0 C1.485 0.99 1.485 0.99 3 2 C5.0492094 2.45139459 5.0492094 2.45139459 7.1875 2.625 C8.445625 2.74875 9.70375 2.8725 11 3 C9 5 9 5 5.5 5.25 C2 5 2 5 0 3 C0 2.01 0 1.02 0 0 Z "
        fill="#CCBDAD"
        transform="translate(87,101)"
      />
      <path
        d="M0 0 C4.3890815 0.51035831 7.33708062 1.52214277 11 4 C10.01 5.485 10.01 5.485 9 7 C8.2575 6.401875 7.515 5.80375 6.75 5.1875 C4.52582236 3.41826778 2.28337765 1.69139085 0 0 Z "
        fill="#A28F7F"
        transform="translate(62,22)"
      />
      <path
        d="M0 0 C2.375 0.3125 2.375 0.3125 5 1 C5.66 1.99 6.32 2.98 7 4 C6.34 4 5.68 4 5 4 C4.67 4.66 4.34 5.32 4 6 C2.62437146 4.71034824 1.29233607 3.37310707 0 2 C0 1.34 0 0.68 0 0 Z "
        fill="#655246"
        transform="translate(44,121)"
      />
      <path
        d="M0 0 C-0.99 0.33 -1.98 0.66 -3 1 C-2.01 1.66 -1.02 2.32 0 3 C-2.97 3 -5.94 3 -9 3 C-9 2.34 -9 1.68 -9 1 C-5.57367167 -0.61798838 -3.61944899 -1.34053666 0 0 Z "
        fill="#6B594C"
        transform="translate(156,114)"
      />
      <path
        d="M0 0 C0.33 0.99 0.66 1.98 1 3 C0.67 3.66 0.34 4.32 0 5 C-0.22622081 6.70363822 -0.40888473 8.41328701 -0.5625 10.125 C-0.64628906 11.03507812 -0.73007813 11.94515625 -0.81640625 12.8828125 C-0.87699219 13.58148438 -0.93757812 14.28015625 -1 15 C-1.33 15 -1.66 15 -2 15 C-2 10.38 -2 5.76 -2 1 C-1.34 0.67 -0.68 0.34 0 0 Z "
        fill="#79675A"
        transform="translate(194,30)"
      />
      <path
        d="M0 0 C2.475 0.495 2.475 0.495 5 1 C4.67 2.32 4.34 3.64 4 5 C2.68 4.67 1.36 4.34 0 4 C0 2.68 0 1.36 0 0 Z "
        fill="#584235"
        transform="translate(39,103)"
      />
      <path
        d="M0 0 C1.32 0.66 2.64 1.32 4 2 C3.67 2.99 3.34 3.98 3 5 C1.68 4.67 0.36 4.34 -1 4 C-0.67 2.68 -0.34 1.36 0 0 Z "
        fill="#D8CABD"
        transform="translate(95,90)"
      />
      <path
        d="M0 0 C1.32 0 2.64 0 4 0 C4.33 1.98 4.66 3.96 5 6 C4.34 6 3.68 6 3 6 C2.67 6.66 2.34 7.32 2 8 C1.34 5.36 0.68 2.72 0 0 Z "
        fill="#68584D"
        transform="translate(46,50)"
      />
      <path
        d="M0 0 C-0.33 0.66 -0.66 1.32 -1 2 C-0.01 2.33 0.98 2.66 2 3 C-0.3431213 2.74438677 -2.67843403 2.40729228 -5 2 C-5.33 1.34 -5.66 0.68 -6 0 C-3.50907189 -1.24546405 -2.58919267 -0.7767578 0 0 Z "
        fill="#6A594F"
        transform="translate(100,148)"
      />
      <path
        d="M0 0 C-5.2734375 3.22265625 -5.2734375 3.22265625 -7 4 C-7.66 3.67 -8.32 3.34 -9 3 C-6.07868595 -0.19953443 -4.37453972 -1.45817991 0 0 Z "
        fill="#A59181"
        transform="translate(49,94)"
      />
      <path
        d="M0 0 C2.475 0.495 2.475 0.495 5 1 C4.67 1.99 4.34 2.98 4 4 C2.68 3.67 1.36 3.34 0 3 C0 2.01 0 1.02 0 0 Z "
        fill="#E1D4C8"
        transform="translate(148,91)"
      />
    </svg>